<svg width="81" height="81" viewBox="0 0 81 81" fill="none" xmlns="http://www.w3.org/2000/svg">
<g filter="url(#filter0_di_395_1160)">
<path d="M3 18.75C3 8.39466 11.3947 0 21.75 0H59.25C69.6053 0 78 8.39466 78 18.75V56.25C78 66.6053 69.6053 75 59.25 75H21.75C11.3947 75 3 66.6053 3 56.25V18.75Z" fill="#FB9B90"/>
<path d="M3.375 18.75C3.375 8.60176 11.6018 0.375 21.75 0.375H59.25C69.3982 0.375 77.625 8.60177 77.625 18.75V56.25C77.625 66.3982 69.3982 74.625 59.25 74.625H21.75C11.6018 74.625 3.375 66.3982 3.375 56.25V18.75Z" stroke="#171E34" stroke-width="0.75"/>
</g>
<path d="M38.253 30.2253C37.7551 30.678 37.2118 31.0326 36.6233 31.2891C36.0348 31.5456 35.3407 31.6739 34.5409 31.6739C34.0882 31.6739 33.6657 31.5909 33.2734 31.4249C32.8961 31.2438 32.5717 31.0099 32.3001 30.7232C32.0285 30.4214 31.8097 30.0819 31.6437 29.7047C31.4928 29.3274 31.4173 28.9275 31.4173 28.505C31.4173 28.0825 31.4852 27.7203 31.621 27.4185C31.7568 27.1017 31.9455 26.83 32.1869 26.6037C32.4283 26.3773 32.7075 26.1736 33.0244 25.9925C33.3413 25.8115 33.6808 25.6228 34.043 25.4267C34.7975 24.9287 35.469 24.4232 36.0575 23.9101C36.6611 23.3971 37.1968 22.9217 37.6645 22.4841C38.1323 22.0314 38.5398 21.6467 38.8868 21.3298C39.2339 21.0129 39.5357 20.7941 39.7922 20.6734C39.9431 20.5979 40.0789 20.5375 40.1996 20.4923C40.3355 20.4319 40.4713 20.3942 40.6071 20.3791C40.7429 20.3489 40.8938 20.3338 41.0598 20.3338C41.2258 20.3187 41.437 20.3112 41.6935 20.3112C42.4782 20.3112 43.0969 20.4696 43.5496 20.7865C44.0174 21.1034 44.3645 21.5184 44.5908 22.0314C44.8322 22.5294 44.9831 23.0953 45.0435 23.7291C45.1039 24.3628 45.134 25.0042 45.134 25.653V46.6582C45.134 47.3221 45.1039 47.9785 45.0435 48.6274C44.9831 49.2612 44.8322 49.8271 44.5908 50.325C44.3645 50.823 44.0174 51.2304 43.5496 51.5473C43.0969 51.8491 42.4782 52 41.6935 52C40.8938 52 40.2676 51.8491 39.8149 51.5473C39.3622 51.2304 39.0151 50.823 38.7737 50.325C38.5473 49.8271 38.4039 49.2612 38.3436 48.6274C38.2832 47.9785 38.253 47.3221 38.253 46.6582V30.2253Z" fill="#191A43"/>
<defs>
<filter id="filter0_di_395_1160" x="0" y="0" width="81" height="81" filterUnits="userSpaceOnUse" color-interpolation-filters="sRGB">
<feFlood flood-opacity="0" result="BackgroundImageFix"/>
<feColorMatrix in="SourceAlpha" type="matrix" values="0 0 0 0 0 0 0 0 0 0 0 0 0 0 0 0 0 0 127 0" result="hardAlpha"/>
<feOffset dy="3"/>
<feGaussianBlur stdDeviation="1.5"/>
<feComposite in2="hardAlpha" operator="out"/>
<feColorMatrix type="matrix" values="0 0 0 0 0 0 0 0 0 0 0 0 0 0 0 0 0 0 0.25 0"/>
<feBlend mode="normal" in2="BackgroundImageFix" result="effect1_dropShadow_395_1160"/>
<feBlend mode="normal" in="SourceGraphic" in2="effect1_dropShadow_395_1160" result="shape"/>
<feColorMatrix in="SourceAlpha" type="matrix" values="0 0 0 0 0 0 0 0 0 0 0 0 0 0 0 0 0 0 127 0" result="hardAlpha"/>
<feOffset dx="-5.25" dy="3"/>
<feGaussianBlur stdDeviation="1.5"/>
<feComposite in2="hardAlpha" operator="arithmetic" k2="-1" k3="1"/>
<feColorMatrix type="matrix" values="0 0 0 0 0 0 0 0 0 0 0 0 0 0 0 0 0 0 0.25 0"/>
<feBlend mode="normal" in2="shape" result="effect2_innerShadow_395_1160"/>
</filter>
</defs>
</svg>
