<svg width="82" height="82" viewBox="0 0 82 82" fill="none" xmlns="http://www.w3.org/2000/svg">
<g filter="url(#filter0_di_395_1144)">
<path d="M3.25 19.0176C3.25 8.66224 11.6447 0.267578 22 0.267578H59.5C69.8553 0.267578 78.25 8.66224 78.25 19.0176V56.5176C78.25 66.8729 69.8553 75.2676 59.5 75.2676H22C11.6447 75.2676 3.25 66.8729 3.25 56.5176V19.0176Z" fill="#FB9B90"/>
<path d="M3.625 19.0176C3.625 8.86934 11.8518 0.642578 22 0.642578H59.5C69.6482 0.642578 77.875 8.86935 77.875 19.0176V56.5176C77.875 66.6658 69.6482 74.8926 59.5 74.8926H22C11.8518 74.8926 3.625 66.6658 3.625 56.5176V19.0176Z" stroke="#171E34" stroke-width="0.75"/>
</g>
<path d="M41.248 19.1477C42.9531 19.1477 44.447 19.3816 45.7297 19.8494C47.0274 20.3021 48.1063 20.9434 48.9665 21.7733C49.8266 22.5882 50.4754 23.569 50.9131 24.7159C51.3507 25.8476 51.5695 27.1001 51.5695 28.4733C51.5695 29.3787 51.4412 30.2161 51.1847 30.9857C50.9432 31.7553 50.6188 32.457 50.2114 33.0908C49.819 33.7245 49.3663 34.298 48.8533 34.811C48.3402 35.3241 47.8196 35.7768 47.2915 36.1691C46.0239 37.1047 44.5979 37.8592 43.0135 38.4326C42.4853 38.6439 41.9572 38.9004 41.429 39.2022C40.916 39.4889 40.4557 39.8284 40.0483 40.2207C39.6409 40.598 39.3089 41.0431 39.0524 41.5562C38.7959 42.0542 38.6676 42.6276 38.6676 43.2765V44.6798H46.5445C47.1783 44.6798 47.8121 44.71 48.4459 44.7704C49.0796 44.8307 49.653 44.9665 50.1661 45.1778C50.6792 45.389 51.0941 45.7059 51.411 46.1284C51.7279 46.5359 51.8864 47.0942 51.8864 47.8034C51.8864 48.5277 51.7279 49.1012 51.411 49.5237C51.0941 49.9462 50.6792 50.2706 50.1661 50.497C49.653 50.7233 49.0796 50.8667 48.4459 50.927C47.8121 50.9874 47.1783 51.0176 46.5445 51.0176H35.2724C34.5179 51.0176 33.8916 50.8969 33.3937 50.6554C32.9108 50.3989 32.526 50.082 32.2393 49.7048C31.9526 49.3124 31.7489 48.8824 31.6282 48.4146C31.5225 47.9317 31.4697 47.4564 31.4697 46.9886V43.367C31.4697 42.2051 31.6583 41.1186 32.0356 40.1076C32.4279 39.0815 32.9712 38.1534 33.6653 37.3235C34.3745 36.4785 35.212 35.724 36.1778 35.06C37.1586 34.396 38.2451 33.8302 39.4372 33.3624C40.6293 32.8946 41.5799 32.4494 42.2892 32.0269C42.9984 31.5893 43.5416 31.1668 43.9189 30.7594C44.3112 30.3369 44.5677 29.9143 44.6885 29.4918C44.8092 29.0693 44.8695 28.6392 44.8695 28.2016C44.8695 27.417 44.7337 26.7983 44.4621 26.3456C44.2056 25.8929 43.8812 25.5609 43.4888 25.3496C43.1116 25.1233 42.7117 24.9875 42.2892 24.9422C41.8817 24.8819 41.5347 24.8517 41.248 24.8517C40.4935 24.8517 39.8899 24.9649 39.4372 25.1912C38.9845 25.4025 38.6374 25.6741 38.396 26.0061C38.1696 26.338 38.0187 26.7077 37.9433 27.1152C37.8829 27.5075 37.8527 27.8848 37.8527 28.2469C37.8527 28.8354 37.7396 29.3409 37.5132 29.7634C37.2869 30.1709 37.0002 30.5028 36.6531 30.7594C36.3211 31.0159 35.9514 31.2045 35.544 31.3252C35.1516 31.446 34.7895 31.5063 34.4575 31.5063C33.4314 31.5063 32.6015 31.2272 31.9677 30.6688C31.3339 30.0954 31.017 29.3636 31.017 28.4733C31.017 28.0809 31.0623 27.5754 31.1528 26.9567C31.2434 26.338 31.4169 25.6816 31.6734 24.9875C31.9299 24.2934 32.2921 23.5992 32.7599 22.9051C33.2277 22.2109 33.8388 21.5847 34.5933 21.0264C35.3478 20.4681 36.2683 20.0154 37.3548 19.6683C38.4412 19.3212 39.739 19.1477 41.248 19.1477Z" fill="#191A43"/>
<defs>
<filter id="filter0_di_395_1144" x="0.25" y="0.267578" width="81" height="81" filterUnits="userSpaceOnUse" color-interpolation-filters="sRGB">
<feFlood flood-opacity="0" result="BackgroundImageFix"/>
<feColorMatrix in="SourceAlpha" type="matrix" values="0 0 0 0 0 0 0 0 0 0 0 0 0 0 0 0 0 0 127 0" result="hardAlpha"/>
<feOffset dy="3"/>
<feGaussianBlur stdDeviation="1.5"/>
<feComposite in2="hardAlpha" operator="out"/>
<feColorMatrix type="matrix" values="0 0 0 0 0 0 0 0 0 0 0 0 0 0 0 0 0 0 0.25 0"/>
<feBlend mode="normal" in2="BackgroundImageFix" result="effect1_dropShadow_395_1144"/>
<feBlend mode="normal" in="SourceGraphic" in2="effect1_dropShadow_395_1144" result="shape"/>
<feColorMatrix in="SourceAlpha" type="matrix" values="0 0 0 0 0 0 0 0 0 0 0 0 0 0 0 0 0 0 127 0" result="hardAlpha"/>
<feOffset dx="-5.25" dy="3"/>
<feGaussianBlur stdDeviation="1.5"/>
<feComposite in2="hardAlpha" operator="arithmetic" k2="-1" k3="1"/>
<feColorMatrix type="matrix" values="0 0 0 0 0 0 0 0 0 0 0 0 0 0 0 0 0 0 0.25 0"/>
<feBlend mode="normal" in2="shape" result="effect2_innerShadow_395_1144"/>
</filter>
</defs>
</svg>
