<svg width="81" height="82" viewBox="0 0 81 82" fill="none" xmlns="http://www.w3.org/2000/svg">
<g filter="url(#filter0_di_395_1128)">
<path d="M3 19.0176C3 8.66224 11.3947 0.267578 21.75 0.267578H59.25C69.6053 0.267578 78 8.66224 78 19.0176V56.5176C78 66.8729 69.6053 75.2676 59.25 75.2676H21.75C11.3947 75.2676 3 66.8729 3 56.5176V19.0176Z" fill="#FB9B90"/>
<path d="M3.375 19.0176C3.375 8.86934 11.6018 0.642578 21.75 0.642578H59.25C69.3982 0.642578 77.625 8.86935 77.625 19.0176V56.5176C77.625 66.6658 69.3982 74.8926 59.25 74.8926H21.75C11.6018 74.8926 3.375 66.6658 3.375 56.5176V19.0176Z" stroke="#171E34" stroke-width="0.75"/>
</g>
<path d="M41.1564 25.9382V25.6213H35.2713C34.7583 25.6213 34.2226 25.5911 33.6643 25.5307C33.121 25.4704 32.6231 25.3346 32.1704 25.1233C31.7177 24.912 31.3404 24.5952 31.0386 24.1726C30.7519 23.7501 30.6086 23.1767 30.6086 22.4524C30.6086 21.7432 30.7519 21.1848 31.0386 20.7774C31.3404 20.3549 31.7177 20.038 32.1704 19.8267C32.6231 19.6155 33.121 19.4797 33.6643 19.4193C34.2226 19.359 34.7583 19.3288 35.2713 19.3288H45.3665C45.9701 19.3288 46.5058 19.4269 46.9736 19.623C47.4564 19.8192 47.8563 20.0833 48.1732 20.4152C48.5052 20.7321 48.7542 21.1018 48.9202 21.5244C49.0862 21.9469 49.1692 22.3769 49.1692 22.8145C49.1692 23.0711 49.1465 23.3201 49.1012 23.5615C49.0711 23.8029 48.9881 24.0368 48.8523 24.2632L44.778 31.0536C45.4721 31.3403 46.1512 31.7251 46.8151 32.208C47.4791 32.6758 48.0676 33.2718 48.5806 33.9962C49.1088 34.7205 49.5238 35.5806 49.8256 36.5765C50.1425 37.5574 50.3009 38.6891 50.3009 39.9718C50.3009 41.4204 50.1425 42.7106 49.8256 43.8423C49.5238 44.959 49.1088 45.9323 48.5806 46.7622C48.0676 47.5922 47.4564 48.2938 46.7472 48.8673C46.0531 49.4256 45.3061 49.8783 44.5064 50.2254C43.7217 50.5724 42.9068 50.8214 42.0618 50.9723C41.2168 51.1232 40.3868 51.1987 39.572 51.1987C38.9533 51.1987 38.2893 51.1383 37.5801 51.0176C36.8709 50.8969 36.1617 50.7082 35.4524 50.4517C34.7583 50.1952 34.0868 49.8858 33.4379 49.5237C32.8041 49.1464 32.2383 48.7013 31.7403 48.1882C31.2423 47.6752 30.8425 47.1017 30.5407 46.468C30.254 45.8342 30.1106 45.1325 30.1106 44.3629C30.1106 43.9857 30.1634 43.6311 30.269 43.2991C30.3747 42.952 30.5331 42.6502 30.7444 42.3937C30.9707 42.1221 31.2499 41.9108 31.5819 41.7599C31.9138 41.5939 32.3137 41.5109 32.7815 41.5109C33.4002 41.5109 33.9736 41.6845 34.5018 42.0315C35.045 42.3786 35.4977 42.9143 35.8599 43.6386C35.9504 43.8046 36.0862 43.9932 36.2673 44.2045C36.4635 44.4157 36.7124 44.6119 37.0142 44.793C37.3311 44.9741 37.7084 45.1325 38.146 45.2683C38.5836 45.389 39.0891 45.4494 39.6625 45.4494C40.5377 45.4494 41.2545 45.3136 41.8128 45.042C42.3862 44.7553 42.8389 44.3856 43.1709 43.9329C43.5029 43.4802 43.7292 42.9671 43.85 42.3937C43.9858 41.8203 44.0537 41.2393 44.0537 40.6508C44.0537 39.9718 43.9405 39.3455 43.7142 38.7721C43.4878 38.1987 43.1785 37.7007 42.7861 37.2782C42.4089 36.8557 41.9713 36.5313 41.4733 36.3049C40.9904 36.0635 40.4925 35.9428 39.9794 35.9428C39.2551 35.9428 38.6666 35.724 38.2139 35.2864C37.7612 34.8487 37.5348 34.2527 37.5348 33.4982C37.5348 33.1813 37.5952 32.8342 37.7159 32.457C37.8366 32.0647 38.0328 31.627 38.3044 31.1442L41.1564 25.9382Z" fill="#191A43"/>
<defs>
<filter id="filter0_di_395_1128" x="0" y="0.267578" width="81" height="81" filterUnits="userSpaceOnUse" color-interpolation-filters="sRGB">
<feFlood flood-opacity="0" result="BackgroundImageFix"/>
<feColorMatrix in="SourceAlpha" type="matrix" values="0 0 0 0 0 0 0 0 0 0 0 0 0 0 0 0 0 0 127 0" result="hardAlpha"/>
<feOffset dy="3"/>
<feGaussianBlur stdDeviation="1.5"/>
<feComposite in2="hardAlpha" operator="out"/>
<feColorMatrix type="matrix" values="0 0 0 0 0 0 0 0 0 0 0 0 0 0 0 0 0 0 0.25 0"/>
<feBlend mode="normal" in2="BackgroundImageFix" result="effect1_dropShadow_395_1128"/>
<feBlend mode="normal" in="SourceGraphic" in2="effect1_dropShadow_395_1128" result="shape"/>
<feColorMatrix in="SourceAlpha" type="matrix" values="0 0 0 0 0 0 0 0 0 0 0 0 0 0 0 0 0 0 127 0" result="hardAlpha"/>
<feOffset dx="-5.25" dy="3"/>
<feGaussianBlur stdDeviation="1.5"/>
<feComposite in2="hardAlpha" operator="arithmetic" k2="-1" k3="1"/>
<feColorMatrix type="matrix" values="0 0 0 0 0 0 0 0 0 0 0 0 0 0 0 0 0 0 0.25 0"/>
<feBlend mode="normal" in2="shape" result="effect2_innerShadow_395_1128"/>
</filter>
</defs>
</svg>
