<svg width="340" height="421" viewBox="0 0 340 421" fill="none" xmlns="http://www.w3.org/2000/svg">
<path d="M292.4 154.676C300.861 169.691 303.304 185.999 302.808 202.95C302.343 218.85 297.927 233.889 292.946 248.818C290.48 256.208 287.409 263.5 285.963 271.094C284.647 278.007 284.793 285.276 284.934 292.375C285.285 310.019 283.955 327.465 280.053 344.696C278.374 352.109 276.871 359.562 275.084 366.948C274.76 368.289 273.445 369.39 272.355 370.375C272.152 368.983 272.149 367.816 272.22 366.653C272.338 364.697 271.33 363.933 269.401 363.822C269.401 367.559 269.506 371.144 269.341 374.716C269.286 375.908 268.54 377.069 268.096 377.992C267.904 376.112 267.668 374.489 267.56 372.857C267.333 369.432 264.979 367.875 261.808 369.405C259.395 370.57 257.201 372.186 254.795 373.727C253.236 374.741 251.791 375.629 250.154 376.432C249.621 375.44 249.168 374.56 248.957 373.625C246.116 361.085 242.878 348.614 240.623 335.969C238.677 325.058 236.967 313.959 236.811 302.919C236.676 293.354 235.521 284.288 231.84 275.577C223.316 255.405 217.971 234.461 215.629 212.686C213.427 192.224 215.279 172.414 224.243 153.568C232.3 154.368 240.093 155.402 247.918 155.828C257.05 156.324 266.216 156.545 275.358 156.39C281.047 156.293 286.72 155.279 292.4 154.676ZM262.038 203.961C260.862 204.351 259.685 204.741 258.508 205.131C259.074 205.705 259.457 205.757 259.841 205.768C261.595 205.819 264.013 205.193 264.917 206.092C265.807 206.978 265.241 209.408 265.176 211.156C264.999 215.923 264.681 220.685 264.544 225.452C264.324 233.15 263.836 240.864 264.128 248.547C264.57 260.195 265.632 271.819 266.331 283.46C266.653 288.805 266.712 294.165 266.934 299.516C267.306 308.463 267.802 317.406 268.081 326.355C268.388 336.201 268.507 346.053 268.721 355.902C268.74 356.784 268.854 357.665 268.925 358.546C269.201 358.543 269.477 358.54 269.754 358.538C270.415 353.598 271.161 348.667 271.721 343.715C273.106 331.476 275.199 319.249 275.541 306.976C275.979 291.309 275.553 275.559 274.404 259.925C273.54 248.165 270.969 236.529 269.122 224.844C268.245 219.289 267.271 213.751 266.371 208.2C266.021 206.045 266.689 204.966 269.18 205.115C271.161 205.234 273.178 204.76 275.179 204.548C275.171 204.316 275.163 204.083 275.154 203.851C270.944 203.851 266.735 203.851 262.038 203.961Z" fill="#462A61"/>
<path d="M281.741 58.4727C288.614 60.221 295.519 61.854 302.347 63.7618C306.292 64.864 308.217 67.9374 309.139 71.8148C314.712 95.2409 319.399 118.836 323.309 142.601C325.681 157.019 328.668 171.337 331.461 185.683C331.887 187.867 332.648 190.008 333.456 192.09C335.03 196.141 336.011 200.266 335.441 204.782C334.194 201.92 333.002 201.301 330.394 202.918C327.871 204.483 325.581 206.422 323.156 208.221C324.539 210.733 326.054 212.074 328.752 211.266C329.2 211.133 329.786 211.462 330.308 211.577C329.13 212.017 327.981 212.571 326.769 212.876C322.544 213.94 321.079 213.07 319.936 208.952C319.234 206.421 318.555 203.884 317.85 201.355C316.953 198.14 316.204 195.19 312.816 193.073C310.702 191.753 309.339 188.409 308.678 185.717C304.733 169.658 301.091 153.524 297.337 137.418C297.276 137.155 297.076 136.925 296.425 135.741C295.075 139.604 293.902 142.762 292.879 145.968C292.267 147.884 291.89 149.876 291.177 152.126C286.756 155.232 282.1 155.267 277.421 154.404C270.125 153.057 262.857 151.621 255.401 152.976C248.47 154.235 241.871 153.45 235.502 150.279C234.027 149.544 232.07 149.831 230.369 149.482C228.89 149.178 227.459 148.639 225.958 147.97C225.595 142.238 225.281 136.739 225.152 131.281C228.792 135.746 233.702 137.428 238.935 138.309C243.121 139.014 247.346 139.567 251.577 139.896C257.953 140.391 264.314 140.229 270.731 138.274C280.593 136.316 287.628 131.569 290.841 121.636C293.949 112.025 295.809 102.402 293.867 92.3906C293.038 88.122 291.546 83.9824 290.374 79.5325C289.75 76.5512 289.442 73.6807 288.371 71.131C287.279 68.5324 285.436 66.2493 283.774 63.6873C282.997 61.8553 282.369 60.164 281.741 58.4727Z" fill="#2F60BD"/>
<path d="M221.226 65.3476C221.815 59.9895 222.933 54.7957 226.118 49.8368C229.503 42.1632 229.749 34.725 227.442 27.0811C226.471 23.864 226.022 20.4911 225.276 17.2026C225.066 16.2749 224.646 15.3949 224.321 14.4931C224.268 10.7392 226.157 7.98413 228.977 5.81119C233.788 2.10362 238.959 -0.759249 245.344 0.438375C246.915 0.733109 248.356 1.72274 249.72 2.59534C247.647 3.14797 245.711 3.49818 243.153 3.96091C244.104 4.62258 244.446 4.92658 244.84 5.12462C250.197 7.81217 254.429 11.6554 257.066 17.1026C261.614 26.497 261.026 36.3649 259.566 46.2637C258.875 50.9556 257.862 55.6001 256.997 60.2667C255.852 66.4449 259.207 71.0866 262.258 75.8668C269.09 86.5698 269.743 102.826 261.746 113.608C254.656 123.166 245.524 127.277 233.635 125.489C226.828 124.465 221.244 121.167 215.883 116.96C216.158 115.519 216.226 114.198 216.781 113.128C218.543 109.727 220.486 106.42 222.523 102.966C226.255 97.7357 227.474 92.5012 224.623 86.4541C223.252 83.5447 222.84 80.12 222.35 76.8748C221.774 73.0629 221.584 69.1926 221.226 65.3476Z" fill="#CD3F71"/>
<path d="M271.128 406.942C288.17 407.89 305.301 408.015 322.058 411.629C322.112 412.096 322.165 412.563 322.219 413.03C320.779 413.521 319.37 414.28 317.892 414.458C311.824 415.186 305.746 415.907 299.65 416.317C288.883 417.041 278.101 417.557 267.323 418.12C262.659 418.363 257.991 418.586 253.321 418.684C233.143 419.109 212.965 419.549 192.785 419.858C174.733 420.134 156.68 420.376 138.627 420.388C124.19 420.398 109.75 420.126 95.3148 419.816C83.3404 419.559 71.3691 419.116 59.4002 418.658C51.8502 418.368 44.2883 418.114 36.7654 417.458C25.7552 416.497 14.7737 415.204 3.78486 414.007C2.779 413.897 1.80872 413.461 0.821931 413.176C0.773215 412.848 0.724497 412.52 0.675781 412.191C2.39949 411.628 4.08953 410.736 5.85256 410.555C14.7335 409.642 23.6255 408.804 32.5291 408.151C41.1511 407.519 49.7919 407.143 58.7692 406.567C59.7993 407.411 60.3226 408.557 61.2062 409.228C62.7321 410.386 64.4139 411.924 66.1515 412.099C70.0689 412.494 74.0604 412.152 78.2238 412.107C78.8887 410.781 79.3515 409.458 79.8166 407.934C79.5789 407.109 79.3388 406.487 79.3523 405.844C80.7802 405.804 81.9544 405.783 83.1828 405.963C83.2668 406.439 83.2965 406.714 83.2989 407.232C83.0821 410.243 84.304 411.149 87.108 411.098C96.1691 410.932 105.235 411.038 114.299 411.034C117.207 411.033 119.326 409.848 120.403 406.817C120.645 406.166 120.788 405.678 121.202 405.193C161.419 405.396 201.363 405.596 241.307 405.799C241.893 405.801 242.478 405.841 243.105 406.074C243.872 406.837 244.539 407.734 245.335 407.866C246.835 408.116 248.409 407.927 250.223 407.97C256.487 408.031 262.482 408.086 268.475 408.001C269.364 407.988 270.244 407.311 271.128 406.942Z" fill="#D9E1EC"/>
<path d="M215.899 117.195C221.245 121.168 226.829 124.465 233.636 125.489C245.525 127.277 254.657 123.166 261.747 113.608C269.744 102.826 269.091 86.57 262.259 75.8669C259.208 71.0867 255.854 66.4451 256.998 60.2669C257.863 55.6003 258.876 50.9558 259.567 46.2639C261.027 36.3651 261.615 26.4972 257.067 17.1028C254.43 11.6556 250.198 7.81236 244.841 5.12481C244.447 4.92677 244.105 4.62278 243.154 3.9611C245.712 3.49838 247.648 3.14816 249.834 2.77148C257.635 3.44116 263.52 6.84058 267.694 13.2714C271.557 19.2224 274.238 25.629 275.753 32.5393C277.521 40.5963 279.265 48.6583 281.038 56.714C281.141 57.1785 281.412 57.6058 281.672 58.2619C282.367 60.1647 282.995 61.8561 283.783 63.9089C286.08 69.442 288.216 74.6135 290.353 79.785C291.544 83.9832 293.036 88.1228 293.865 92.3913C295.807 102.403 293.947 112.025 290.839 121.637C287.626 131.569 280.591 136.316 270.455 138.264C260.686 138.974 251.475 138.529 242.557 135.851C236.534 134.042 230.713 131.555 224.687 129.212C222.819 127.942 221.066 126.831 219.201 125.548C217.183 122.977 215.205 120.607 215.899 117.195Z" fill="#B73068"/>
<path d="M215.885 116.96C215.207 120.607 217.184 122.977 219.061 125.764C218.448 127.383 217.858 128.611 217.284 129.846C208.921 147.84 200.639 165.872 192.108 183.786C190.957 186.203 188.941 189.038 186.656 189.897C182.957 191.287 181.53 193.929 180.055 196.974C178.784 199.599 177.495 202.23 175.987 204.721C175.343 205.786 174.123 206.503 173.127 207.19C172.668 206.407 172.249 205.813 171.806 204.999C172.231 204.059 172.68 203.339 173.236 202.446C171.578 200.489 170.052 198.467 168.296 196.67C165.542 193.851 164.288 193.986 161.914 197.03C162.584 194.515 162.722 191.683 164.006 189.536C174.946 171.239 181.306 150.962 189.397 131.439C194.621 118.833 199.504 106.083 204.816 93.5144C207.922 86.1637 211.416 78.9627 215.065 71.8632C216.256 69.5447 218.485 67.7592 220.421 65.9199C220.437 66.8637 220.116 67.6208 220.132 68.3708C220.25 73.8915 220.278 79.4212 220.642 84.9277C221.044 90.9889 221.775 97.0284 222.362 103.077C220.489 106.42 218.545 109.727 216.783 113.128C216.229 114.198 216.16 115.52 215.885 116.96Z" fill="#2F60BD"/>
<path d="M57.6529 345.358C54.2683 345.355 50.8837 345.351 47.2355 345.047C47.4152 338.135 47.8585 331.522 48.3019 324.909C48.0972 324.885 47.8924 324.862 47.6877 324.838C46.2917 331.63 44.8958 338.422 43.4998 345.214C38.6661 342.64 38.7091 342.649 39.8366 337.336C41.979 327.239 44.0669 317.131 46.5214 306.84C54.2059 308.02 61.4999 309.782 68.8987 310.661C78.7502 311.832 88.2309 309.245 97.6149 306.53C101.106 305.52 104.601 304.522 108.464 303.412C108.723 308.398 108.911 312.756 109.184 317.109C109.511 322.345 109.988 327.574 110.254 332.813C110.501 337.665 110.554 342.526 110.449 347.376C108.699 347.308 107.194 347.247 105.423 347.167C103.725 347.035 102.294 346.854 100.859 346.821C96.002 346.707 91.1437 346.646 86.0391 346.555C83.9956 346.742 82.1989 346.939 80.4041 346.861C80.2053 336.675 80.0252 326.762 79.7778 316.852C79.747 315.619 79.3589 314.394 79.1364 313.166C78.1631 319.097 77.5694 324.966 76.853 330.819C76.1604 336.479 75.3413 342.124 74.3289 347.763C73.139 347.597 72.2003 347.429 71.2568 347.294C66.7229 346.644 62.1877 346.003 57.6529 345.358Z" fill="#FE677A"/>
<path d="M88.6676 183.494C102.175 189.106 115.8 194.454 129.134 200.449C135.049 203.108 140.745 204.032 146.983 202.645C149.644 202.053 152.367 201.669 155.084 201.439C155.89 201.371 156.768 202.151 157.748 202.929C159.151 206.647 160.627 209.917 161.62 213.328C162.382 215.948 162.535 218.745 162.752 221.52C152.612 223.541 142.702 225.631 132.737 227.423C126.99 228.456 121.155 229.007 115.12 229.793C109.488 228.623 104.037 227.652 98.7223 226.186C93.2951 224.689 93.357 224.479 89.9004 228.796C89.2931 229.554 88.6462 230.281 87.8596 230.839C87.0343 224.699 86.6875 218.684 85.5995 212.806C84.7157 208.031 82.9426 203.421 81.5476 198.579C81.5143 198.316 81.4973 198.211 81.5148 197.875C82.6169 192.271 84.8428 187.48 88.6676 183.494Z" fill="#7F56B2"/>
<path d="M81.4811 198.106C81.4981 198.211 81.5151 198.316 81.387 198.738C80.5847 202.464 79.7843 205.852 79.2959 209.285C77.4478 222.276 75.7058 235.282 73.9119 248.281C73.5738 250.731 73.1801 253.173 72.5587 255.622C66.6619 254.837 61.0115 254.095 55.3768 253.248C49.2657 252.329 43.1693 251.312 37.0664 250.338C39.4342 233.764 41.7739 217.187 44.2182 200.625C44.4361 199.148 45.3334 197.772 46.1469 196.535C45.1295 205.97 43.9559 215.23 42.5889 224.46C42.1335 227.535 42.2368 227.866 45.9489 227.707C46.5807 220.622 47.2174 213.484 47.854 206.345C47.9667 206.345 48.0793 206.344 48.192 206.344C48.192 213.727 48.192 221.109 48.192 228.697C50.2608 228.874 52.0437 229.027 54.2494 229.215C54.6788 219.127 55.0885 209.503 55.4982 199.879C55.5555 199.875 55.6129 199.87 55.6703 199.866C56.1768 207.47 56.6834 215.073 57.19 222.677C57.265 222.676 57.34 222.676 57.4149 222.675C57.8733 213.534 58.3316 204.393 59.0406 195.244C64.3567 195.801 69.4221 196.367 74.7366 196.943C77.1508 197.339 79.316 197.722 81.4811 198.106Z" fill="#4B86D5"/>
<path d="M58.7888 195.252C58.3305 204.393 57.8721 213.534 57.4138 222.675C57.3388 222.676 57.2638 222.676 57.1888 222.677C56.6822 215.073 56.1756 207.47 55.6691 199.866C55.6117 199.87 55.5544 199.875 55.497 199.879C55.0873 209.503 54.6776 219.127 54.2482 229.215C52.0425 229.027 50.2596 228.874 48.1908 228.697C48.1908 221.109 48.1908 213.727 48.1908 206.344C48.0781 206.344 47.9655 206.345 47.8528 206.345C47.2162 213.484 46.5795 220.622 45.9477 227.707C42.2356 227.866 42.1323 227.535 42.5877 224.46C43.9547 215.229 45.1283 205.97 46.34 196.442C47.1163 185.862 47.8467 175.555 48.7731 165.265C49.3845 158.474 50.1457 151.689 51.0995 144.938C51.5873 141.486 53.6116 139.269 57.3339 138.507C59.5024 138.063 61.5265 136.785 63.5404 135.738C70.9092 131.906 78.5575 130.339 86.497 133.533C90.8456 135.283 93.3928 138.795 93.7149 143.679C93.1122 143.118 92.6983 142.453 92.2091 141.849C88.114 136.796 84.2535 136.496 80.1923 141.531C77.3444 145.063 75.1466 149.142 72.857 153.091C71.5518 155.343 70.6453 157.825 69.5593 160.204C69.4129 159.909 69.2666 159.614 69.1202 159.319C67.2333 159.78 64.8694 159.694 63.568 160.827C61.4642 162.66 62.5456 165.099 63.9472 167.165C64.0375 167.298 63.9772 167.533 63.7975 167.853C61.8348 166.306 60.0617 164.627 58.1413 162.809C58.4151 168.098 58.687 173.351 58.9251 178.852C59.0099 180.151 59.2503 181.203 59.2257 182.249C59.1237 186.585 58.9415 190.918 58.7888 195.252Z" fill="#462A63"/>
<path d="M48.1813 297.638C47.8683 296.899 47.2567 296.144 47.2947 295.423C47.4497 292.479 47.8033 289.546 48.395 286.367C54.1518 286.133 59.5972 286.149 65.0426 286.148C71.9955 286.146 78.9757 286.496 85.8904 285.977C89.6849 285.693 93.8226 284.712 95.9342 280.367C104.607 280.014 112.113 274.509 114.926 265.93C116.398 261.44 117.004 256.667 118.123 252.225C120.029 267.299 121.811 282.171 123.591 297.026C122.259 297.399 121.42 297.634 120.489 297.886C120.397 297.904 120.224 297.974 119.976 297.927C116.252 298.259 112.772 298.608 109.3 299.021C101.678 299.927 94.0565 300.84 86.4409 301.799C78.9595 302.741 71.4757 303.001 64.059 301.459C58.7318 300.352 53.4715 298.923 48.1813 297.638Z" fill="#7F56B2"/>
<path d="M63.9848 167.72C63.975 167.532 64.0354 167.297 63.9451 167.164C62.5434 165.099 61.462 162.659 63.5658 160.826C64.8672 159.693 67.2311 159.779 69.118 159.318C69.2644 159.613 69.4107 159.908 69.5571 160.203C70.6431 157.824 71.5496 155.342 72.8548 153.09C75.1444 149.141 77.3422 145.062 80.1902 141.53C84.2513 136.495 88.1118 136.795 92.2069 141.849C92.6962 142.452 93.1101 143.117 93.6648 143.902C94.4012 146.157 95.0451 148.261 95.6589 150.374C96.3599 152.787 96.9292 155.244 97.7407 157.619C99.7347 163.453 99.1045 169.111 96.4899 174.528C95.4761 176.628 93.4885 177.767 90.9384 177.63C88.7978 177.515 86.6475 177.579 84.0795 177.426C80.4446 176.201 77.2316 175.113 73.914 173.886C73.4828 173.652 73.1561 173.558 72.7762 173.322C72.5464 173.097 72.37 173.013 72.1784 172.831C72.105 172.753 72.0469 172.773 71.9887 172.794C72.0642 172.831 72.1398 172.869 72.2632 173.045C72.4151 173.361 72.5669 173.476 72.8507 173.677C73.2414 173.958 73.548 174.09 73.8818 174.424C75.3641 176.556 76.819 178.486 78.0225 180.312C73.9219 179.32 70.0726 178.432 66.2098 177.309C66.0271 174.545 65.858 172.017 65.8529 169.368C65.5242 168.911 65.0312 168.576 64.5577 168.235C64.5771 168.23 64.5744 168.27 64.6299 168.069C64.4389 167.798 64.1925 167.727 63.9715 167.662C63.9968 167.669 63.9848 167.72 63.9848 167.72ZM70.8054 170.891L70.6954 170.828C70.6954 170.828 70.7117 170.96 70.8054 170.891Z" fill="#FEBDAB"/>
<path d="M36.9417 250.496C43.1665 251.311 49.263 252.328 55.3741 253.247C61.0088 254.094 66.6592 254.836 72.5593 255.888C72.6218 259.038 72.1157 261.944 72.299 264.806C72.6679 270.565 73.4122 276.301 73.7637 282.039C70.6079 282.074 68.5367 280.745 68.0726 277.859C67.6786 275.409 67.5189 272.822 67.8556 270.378C68.3607 266.711 69.3908 263.117 70.1976 259.493C69.1216 260.119 68.361 260.962 67.909 261.947C66.7743 264.419 65.8877 267.01 64.6693 269.437C64.2426 270.287 63.1204 271.388 62.3455 271.365C57.5061 271.223 52.5778 271.279 47.8672 270.332C42.5907 269.272 37.5138 267.218 32.3501 265.597C32.1253 264.174 31.512 262.683 31.7487 261.342C32.4518 257.359 33.0285 253.213 36.9417 250.496Z" fill="#6CA8EE"/>
<path d="M48.0586 297.85C53.4705 298.924 58.7309 300.352 64.058 301.46C71.4747 303.001 78.9586 302.742 86.4399 301.8C94.0555 300.841 101.677 299.928 109.299 299.022C112.771 298.609 116.251 298.259 120.004 298.072C120.427 298.51 120.573 298.757 120.763 299.193C120.791 299.64 120.774 299.898 120.526 300.169C117.199 300.988 114.051 301.646 111.041 302.698C110.228 302.982 109.228 304.546 109.346 305.375C109.999 309.971 111.032 314.512 111.822 319.091C113.172 326.916 114.438 334.756 115.643 342.758C114.192 344.334 112.837 345.743 111.303 347.177C111.012 347.246 110.899 347.29 110.764 347.349C110.741 347.363 110.691 347.384 110.691 347.384C110.553 342.526 110.5 337.665 110.253 332.813C109.987 327.574 109.51 322.346 109.183 317.109C108.91 312.756 108.722 308.398 108.463 303.412C104.6 304.522 101.105 305.52 97.6137 306.53C88.2297 309.245 78.749 311.832 68.8975 310.661C61.4987 309.782 54.2048 308.02 46.6289 306.641C46.9081 303.774 47.4225 300.917 48.0586 297.85Z" fill="#CD3F71"/>
<path d="M249.954 407.921C248.411 407.928 246.837 408.118 245.336 407.868C244.541 407.735 243.873 406.839 243.223 405.899C243.396 404.808 243.494 404.106 243.738 403.283C246.674 399.846 249.493 396.555 252.235 393.2C252.921 392.36 253.361 391.318 253.949 390.395C253.984 390.422 253.916 390.477 254.081 390.421C254.362 390.167 254.477 389.971 254.688 389.579C255.108 386.616 255.432 383.848 255.758 380.832C255.478 378.256 255.194 375.929 254.911 373.602C257.202 372.186 259.397 370.57 261.809 369.405C264.98 367.875 267.334 369.432 267.561 372.857C267.67 374.489 267.906 376.112 268.104 378.232C268.319 379.964 268.376 381.244 268.735 382.433C269.673 385.54 270.744 388.606 271.763 391.689C271.904 392.529 272.046 393.369 271.935 394.394C268.785 393.472 265.845 392.751 263.267 395.16C258.776 399.357 254.386 403.662 249.954 407.921Z" fill="#CD3F71"/>
<path d="M32.2875 265.826C37.5146 267.22 42.5915 269.273 47.868 270.334C52.5786 271.28 57.5069 271.224 62.3462 271.367C63.1212 271.39 64.2433 270.289 64.6701 269.438C65.8884 267.012 66.7751 264.421 67.9098 261.948C68.3618 260.964 69.1224 260.121 70.1984 259.494C69.3916 263.119 68.3615 266.713 67.8564 270.379C67.5197 272.823 67.6794 275.411 68.0734 277.861C68.5375 280.746 70.6087 282.075 73.7622 282.17C73.9978 282.308 73.9889 282.567 73.7312 282.581C67.8227 282.804 62.1713 283.175 56.5212 283.155C53.7622 283.146 51.0057 282.409 48.2481 282.001C44.8393 280.615 41.3667 279.366 38.036 277.813C32.4256 275.197 31.0495 272.239 32.2875 265.826Z" fill="#5B9EDB"/>
<path d="M58.7499 371.157C58.539 364.096 58.328 357.036 58.3537 349.73C65.3256 352.211 70.3145 356.999 74.4179 363.1C73.8817 366.73 73.3231 370.121 72.5565 373.498C68.2087 370.412 63.5984 370.089 58.7499 371.157Z" fill="#FEBDAB"/>
<path d="M58.7344 371.425C63.601 370.089 68.2114 370.412 72.5685 373.745C72.5865 380.114 72.3871 386.221 71.9955 392.268C70.0785 390.695 68.2597 389.277 66.6521 387.651C64.5753 385.549 62.5058 383.77 59.3086 385.256C59.1111 380.735 58.9137 376.214 58.7344 371.425Z" fill="#D9E1EC"/>
<path d="M226.005 148.205C227.458 148.64 228.889 149.179 230.368 149.483C232.069 149.832 234.026 149.545 235.501 150.28C241.871 153.451 248.469 154.236 255.4 152.977C262.856 151.622 270.124 153.058 277.42 154.405C282.099 155.269 286.755 155.233 291.135 152.354C291.649 152.943 291.974 153.599 292.35 154.465C286.72 155.278 281.047 156.293 275.359 156.389C266.216 156.544 257.05 156.323 247.918 155.827C240.093 155.402 232.301 154.368 224.258 153.347C224.683 151.462 225.344 149.834 226.005 148.205Z" fill="#2B193F"/>
<path d="M250.223 407.97C254.385 403.66 258.775 399.355 263.266 395.159C265.844 392.75 268.784 393.47 271.901 394.61C271.77 398.584 271.42 402.526 271.099 406.705C270.244 407.311 269.364 407.988 268.475 408.001C262.482 408.086 256.487 408.03 250.223 407.97Z" fill="#B73068"/>
<path d="M162.959 221.464C162.535 218.746 162.382 215.949 161.62 213.329C160.628 209.918 159.151 206.648 157.867 203.107C158.515 202.354 159.179 201.81 160.132 201.312C163.195 200.873 165.97 200.387 168.744 199.9C168.868 200.183 168.992 200.466 169.116 200.748C168.119 202.038 167.121 203.328 166.01 204.767C168.171 204.935 170 205.076 171.829 205.218C172.249 205.813 172.669 206.408 173.09 207.431C171.481 211.767 169.847 215.665 168.267 219.586C167.191 222.259 165.43 222.821 162.959 221.464Z" fill="#FEBDAB"/>
<path d="M224.212 14.6445C224.649 15.3953 225.069 16.2753 225.28 17.2029C226.025 20.4915 226.474 23.8643 227.445 27.0815C229.753 34.7253 229.506 42.1636 226.159 49.6256C224.726 48.9142 223.357 48.1781 222.212 47.1838C221.552 46.6105 220.812 45.5809 220.879 44.8252C221.049 42.9134 221.836 41.0586 222.029 39.146C222.189 37.5722 221.88 35.9454 221.718 34.3482C221.671 33.8796 221.285 33.4336 221.278 32.9743C221.196 26.759 221.003 20.5195 224.212 14.6445Z" fill="#FEBDAB"/>
<path d="M78.0222 412.111C74.0608 412.153 70.0693 412.495 66.1519 412.101C64.4143 411.926 62.7325 410.387 61.2066 409.229C60.323 408.558 59.7997 407.413 58.9389 406.385C57.4896 404.747 56.0036 403.329 55.0141 401.622C54.3212 400.427 54.3063 398.839 54.3242 397.229C60.0146 396.211 64.1549 398.09 67.7699 402.138C70.6994 405.418 74.2568 408.136 77.5143 411.126C77.7696 411.361 77.8568 411.778 78.0222 412.111Z" fill="#462A63"/>
<path d="M48.2207 282.26C51.0049 282.409 53.7614 283.145 56.5205 283.155C62.1705 283.175 67.8219 282.804 73.9906 282.598C75.9481 282.493 77.3918 282.423 78.8264 282.269C84.4468 281.664 90.0642 281.033 95.6828 280.412C93.8224 284.714 89.6846 285.695 85.8901 285.979C78.9754 286.497 71.9953 286.148 65.0424 286.15C59.597 286.151 54.1515 286.135 48.431 286.126C48.1687 284.923 48.1814 283.721 48.2207 282.26Z" fill="#67459B"/>
<path d="M330.512 211.61C329.782 211.463 329.196 211.133 328.748 211.267C326.05 212.075 324.535 210.734 323.152 208.222C325.578 206.423 327.868 204.483 330.39 202.919C332.998 201.302 334.19 201.921 335.407 205.054C336.588 208.217 337.504 211.285 338.64 214.27C339.324 216.069 339.216 217.566 337.648 218.685C334.591 220.869 331.459 222.949 327.967 225.34C327.966 222.034 329.646 220.134 331.477 218.26C333.984 215.694 333.737 213.813 330.512 211.61Z" fill="#EEAA9A"/>
<path d="M74.3946 362.86C70.3135 356.999 65.3247 352.21 58.3819 349.453C58.0033 348.22 57.8324 347.019 57.6562 345.588C62.1859 346.003 66.7211 346.644 71.2551 347.294C72.1985 347.429 73.1372 347.597 74.4514 347.903C75.4512 348.124 76.0777 348.192 76.7364 348.5C75.9772 353.447 75.1859 358.154 74.3946 362.86Z" fill="#CA6C91"/>
<path d="M59.2385 385.45C62.5043 383.769 64.5738 385.549 66.6506 387.65C68.2582 389.277 70.077 390.695 72.0898 392.46C72.7194 393.706 73.1984 394.674 73.3786 395.695C74.0977 399.769 75.7757 403.27 79.0983 405.864C79.3383 406.487 79.5784 407.11 79.6129 407.912C76.8783 405.862 73.6564 404.062 71.9603 401.318C68.0686 395.021 62.6428 392.595 55.5938 392.866C56.7858 390.459 57.9779 388.052 59.2385 385.45Z" fill="#462A63"/>
<path d="M55.4213 392.967C62.6454 392.594 68.0712 395.021 71.963 401.317C73.659 404.061 76.8809 405.861 79.6131 408.113C79.3536 409.458 78.8909 410.781 78.226 412.106C77.8586 411.776 77.7714 411.359 77.516 411.124C74.2586 408.134 70.7012 405.416 67.7717 402.136C64.1567 398.088 60.0164 396.209 54.3984 397.039C54.5055 395.721 54.8758 394.395 55.4213 392.967Z" fill="#7F56B2"/>
<path d="M81.5161 197.876C79.3164 197.723 77.1512 197.339 74.7773 196.731C76.9246 191.599 79.2805 186.69 81.882 181.762C82.785 181.704 83.4425 181.665 84.1 181.627C85.5613 182.122 87.0225 182.618 88.5763 183.304C84.844 187.481 82.6181 192.272 81.5161 197.876Z" fill="#3A7CC3"/>
<path d="M222.523 102.965C221.772 97.0279 221.042 90.9885 220.64 84.9272C220.275 79.4208 220.248 73.8911 220.129 68.3703C220.113 67.6204 220.435 66.8632 220.612 65.8802C220.72 65.5917 220.816 65.5324 221.069 65.4102C221.584 69.1923 221.774 73.0626 222.35 76.8745C222.84 80.1197 223.252 83.5444 224.623 86.4538C227.474 92.5009 226.255 97.7355 222.523 102.965Z" fill="#26539E"/>
<path d="M171.804 204.998C169.998 205.075 168.169 204.933 166.007 204.766C167.119 203.327 168.116 202.037 169.113 200.747C168.989 200.464 168.865 200.182 168.741 199.899C165.967 200.385 163.193 200.872 160.281 201.191C160.678 199.813 161.212 198.602 161.829 197.21C164.286 193.985 165.54 193.85 168.294 196.669C170.05 198.466 171.576 200.489 173.234 202.445C172.678 203.338 172.229 204.059 171.804 204.998Z" fill="#EEAA9A"/>
<path d="M271.776 391.426C270.744 388.604 269.673 385.538 268.735 382.431C268.375 381.242 268.318 379.962 268.117 378.482C268.541 377.067 269.287 375.906 269.342 374.714C269.507 371.142 269.402 367.557 269.402 363.82C271.331 363.931 272.339 364.695 272.221 366.651C272.15 367.814 272.153 368.981 272.145 370.417C271.049 377.495 270.582 384.314 271.776 391.426Z" fill="#B73068"/>
<path d="M43.7422 345.276C44.8977 338.422 46.2936 331.63 47.6896 324.838C47.8943 324.862 48.099 324.886 48.3038 324.909C47.8604 331.522 47.4171 338.135 46.9632 345.007C45.9628 345.29 44.9727 345.314 43.7422 345.276Z" fill="#CD3F71"/>
<path d="M84.0839 181.375C83.4408 181.663 82.7833 181.702 81.7602 181.596C80.3551 181.107 79.3155 180.761 78.2759 180.416C76.821 178.486 75.3661 176.555 73.9258 174.373C73.9404 174.121 74.0206 174.025 74.0206 174.025C77.2336 175.113 80.4466 176.2 83.8094 177.447C83.9959 178.779 84.0327 179.952 84.0839 181.375Z" fill="#CA6C91"/>
<path d="M162.749 221.519C165.427 222.82 167.188 222.258 168.264 219.585C169.844 215.664 171.478 211.765 173.125 207.617C174.12 206.503 175.34 205.786 175.984 204.721C177.492 202.23 178.781 199.599 180.052 196.974C181.527 193.928 182.954 191.287 186.653 189.897C188.939 189.038 190.954 186.203 192.105 183.785C200.636 165.871 208.918 147.839 217.281 129.845C217.855 128.61 218.445 127.383 219.17 125.936C221.064 126.831 222.817 127.942 224.654 129.449C224.813 130.31 224.888 130.776 224.963 131.242C225.277 136.74 225.592 142.238 225.954 147.97C225.342 149.833 224.68 151.462 224.004 153.311C215.277 172.413 213.425 192.223 215.626 212.685C217.969 234.46 223.314 255.404 231.838 275.576C235.518 284.287 236.673 293.353 236.809 302.918C236.965 313.958 238.675 325.057 240.621 335.968C242.876 348.613 246.113 361.084 248.954 373.624C249.166 374.559 249.619 375.439 250.207 376.633C251.345 379.422 253.356 380.495 255.751 381.079C255.428 383.847 255.105 386.614 254.523 389.646C254.147 390.098 254.03 390.287 253.912 390.476C253.912 390.476 253.98 390.421 253.753 390.45C250.205 393.177 246.794 395.773 243.603 398.617C242.078 399.977 241.645 401.803 243.589 403.403C243.491 404.105 243.392 404.807 243.178 405.686C242.476 405.841 241.891 405.802 241.305 405.799C201.361 405.596 161.417 405.396 121.145 404.984C120.51 402.423 119.11 401.043 116.817 400.95C112.912 400.79 109.989 398.67 106.932 396.625C105.487 395.659 103.708 395.194 101.993 394.301C101.561 390.535 101.214 386.97 100.867 383.138C101.501 376.06 102.135 369.249 102.914 362.258C103.935 357.113 104.811 352.15 105.688 347.187C107.193 347.247 108.698 347.308 110.447 347.376C110.691 347.383 110.741 347.363 110.844 347.455C111.125 347.416 111.303 347.284 111.482 347.152C112.837 345.743 114.191 344.334 115.835 342.682C118.997 341.018 121.831 339.507 124.759 338.209C126.468 337.451 127.017 336.44 126.692 334.599C124.672 323.125 122.727 311.638 120.757 300.156C120.774 299.898 120.791 299.64 120.789 299.001C120.707 298.37 120.643 298.12 120.58 297.87C121.419 297.635 122.257 297.4 123.59 297.027C121.809 282.171 120.027 267.3 118.138 251.96C117.453 246.73 116.874 241.969 116.299 237.038C116.216 236.66 116.13 236.451 116.075 236.005C115.856 233.77 115.607 231.772 115.357 229.774C121.152 229.006 126.987 228.455 132.734 227.422C142.699 225.631 152.61 223.541 162.749 221.519Z" fill="#FBEDEC"/>
<path d="M262.281 203.905C266.734 203.85 270.944 203.85 275.154 203.85C275.162 204.082 275.17 204.315 275.179 204.547C273.178 204.758 271.161 205.233 269.18 205.114C266.688 204.965 266.021 206.044 266.37 208.199C267.27 213.75 268.244 219.288 269.122 224.842C270.968 236.528 273.54 248.164 274.404 259.924C275.553 275.558 275.978 291.308 275.541 306.975C275.198 319.248 273.105 331.475 271.72 343.714C271.16 348.666 270.414 353.596 269.753 358.537C269.477 358.539 269.2 358.542 268.924 358.545C268.854 357.664 268.739 356.783 268.72 355.901C268.506 346.052 268.388 336.2 268.08 326.354C267.801 317.405 267.305 308.462 266.934 299.515C266.712 294.164 266.652 288.804 266.331 283.459C265.632 271.818 264.569 260.194 264.127 248.545C263.835 240.863 264.323 233.149 264.544 225.451C264.68 220.683 264.999 215.921 265.176 211.155C265.241 209.407 265.806 206.977 264.916 206.091C264.013 205.192 261.595 205.818 259.84 205.767C259.456 205.756 259.073 205.704 258.508 205.13C259.684 204.74 260.861 204.35 262.281 203.905Z" fill="#2B193F"/>
<path d="M255.757 380.831C253.359 380.496 251.348 379.423 250.402 376.72C251.792 375.629 253.236 374.74 254.795 373.727C255.193 375.928 255.477 378.255 255.757 380.831Z" fill="#2B193F"/>
<path d="M257.256 206.031C257.29 206.011 257.222 206.051 257.256 206.031Z" fill="#2B193F"/>
<path d="M225.149 131.28C224.888 130.776 224.813 130.31 224.77 129.607C230.712 131.554 236.532 134.041 242.556 135.85C251.473 138.528 260.685 138.973 270.225 138.282C264.31 140.229 257.949 140.391 251.573 139.896C247.343 139.567 243.117 139.014 238.932 138.309C233.698 137.428 228.788 135.746 225.149 131.28Z" fill="#26539E"/>
<path d="M290.374 79.5325C288.218 74.6127 286.082 69.4412 283.934 64.0488C285.436 66.2493 287.279 68.5324 288.371 71.131C289.442 73.6807 289.75 76.5512 290.374 79.5325Z" fill="#26539E"/>
<path d="M79.3512 405.845C75.775 403.27 74.0971 399.769 73.3779 395.695C73.1978 394.674 72.7187 393.707 72.2812 392.522C72.3849 386.222 72.5844 380.114 72.7744 373.759C73.3236 370.122 73.8822 366.73 74.4184 363.1C75.1873 358.154 75.9786 353.448 76.8944 348.341C78.1465 347.672 79.2741 347.404 80.4018 347.136C82.1985 346.939 83.9952 346.743 86.0509 346.799C86.3286 348.023 86.3475 348.995 86.2469 350.191C85.9414 355.927 85.4339 361.452 85.6562 366.948C85.8954 372.86 86.819 378.745 87.4283 384.894C87.2121 388.375 87.0115 391.604 86.6215 394.947C85.7852 395.961 84.8032 396.778 84.5564 397.777C83.909 400.397 83.5821 403.096 83.1274 405.763C81.9532 405.784 80.779 405.805 79.3512 405.845Z" fill="#FEFEFF"/>
<path d="M83.1836 405.963C83.584 403.095 83.9109 400.396 84.5583 397.776C84.8051 396.778 85.7871 395.961 86.8315 395.054C89.7677 395.994 92.2598 397.103 94.8561 397.849C98.5393 398.908 100.474 397.904 102.083 394.502C103.711 395.194 105.49 395.659 106.935 396.626C109.992 398.67 112.915 400.79 116.82 400.95C119.113 401.043 120.513 402.423 120.875 404.982C120.788 405.679 120.646 406.166 120.13 406.827C107.613 406.996 95.4699 406.993 83.3269 406.99C83.2972 406.714 83.2675 406.439 83.1836 405.963Z" fill="#462A63"/>
<path d="M83.2979 407.232C95.4681 406.993 107.611 406.996 120.028 406.99C119.325 409.848 117.206 411.034 114.298 411.035C105.234 411.038 96.168 410.932 87.107 411.098C84.303 411.149 83.0811 410.243 83.2979 407.232Z" fill="#7F56B2"/>
<path d="M86.3655 349.966C86.3467 348.994 86.3278 348.022 86.2969 346.807C91.1425 346.646 96.0008 346.707 100.858 346.821C102.293 346.854 103.724 347.035 105.422 347.167C104.811 352.15 103.935 357.113 102.734 362.165C101.571 361.447 100.808 360.539 99.8818 359.851C95.4004 356.524 90.8752 353.256 86.3655 349.966Z" fill="#CA6C91"/>
<path d="M80.405 346.861C79.2755 347.404 78.1478 347.672 76.8636 348.1C76.0805 348.192 75.454 348.124 74.7031 347.916C75.3423 342.124 76.1613 336.479 76.854 330.819C77.5703 324.966 78.164 319.097 79.1374 313.166C79.3599 314.394 79.748 315.619 79.7788 316.852C80.0262 326.762 80.2062 336.675 80.405 346.861Z" fill="#CD3F71"/>
<path d="M116.299 237.209C116.877 241.97 117.456 246.731 118.018 251.758C117.005 256.668 116.399 261.441 114.927 265.931C112.114 274.511 104.609 280.015 95.936 280.368C90.0663 281.033 84.4488 281.664 78.8285 282.268C77.3938 282.422 75.9501 282.492 74.2504 282.584C73.9902 282.567 73.9991 282.307 74.0014 282.178C73.4143 276.302 72.6699 270.566 72.301 264.807C72.1178 261.945 72.6239 259.039 72.8147 255.886C73.1794 253.173 73.5732 250.731 73.9113 248.281C75.7051 235.282 77.4472 222.276 79.2952 209.285C79.7836 205.852 80.5841 202.464 81.4027 198.896C82.9428 203.422 84.7159 208.032 85.5997 212.806C86.6877 218.684 87.0345 224.7 87.8611 231.109C88.2196 235.141 88.4952 238.717 88.6023 242.298C88.8461 250.446 88.9893 258.597 89.2297 266.745C89.2533 267.544 89.4963 268.902 89.9287 269.032C92.5918 269.833 95.3386 270.355 98.2988 270.955C102.108 271.127 104.642 269.157 106.806 266.718C111.293 261.66 113.072 255.365 114.403 248.949C115.207 245.072 115.678 241.125 116.299 237.209Z" fill="#3A7CC3"/>
<path d="M98.058 270.969C95.339 270.354 92.5922 269.831 89.9291 269.03C89.4967 268.9 89.2537 267.543 89.2301 266.743C88.9897 258.595 88.8465 250.444 88.6027 242.297C88.4955 238.716 88.2199 235.14 88.0195 231.291C88.6468 230.28 89.2937 229.553 89.901 228.795C93.3576 224.478 93.2956 224.688 98.7229 226.185C104.038 227.651 109.489 228.622 115.12 229.792C115.61 231.771 115.86 233.769 115.859 236.007C114.69 236.518 113.704 236.658 112.863 237.084C106.525 240.302 102.149 245.267 99.7292 251.968C97.4931 258.161 98.0731 264.588 98.058 270.969Z" fill="#67459B"/>
<path d="M78.025 180.313C79.3159 180.762 80.3555 181.108 81.5151 181.617C79.2792 186.689 76.9233 191.598 74.527 196.719C69.4212 196.366 64.3558 195.801 59.0397 195.244C58.9418 190.918 59.124 186.584 59.226 182.249C59.2506 181.203 59.0102 180.151 59.1403 178.912C61.668 178.331 63.9469 177.938 66.2259 177.545C70.0751 178.433 73.9244 179.321 78.025 180.313Z" fill="#7F56B2"/>
<path d="M66.2113 177.309C63.9459 177.938 61.667 178.33 59.1731 178.663C58.6863 173.35 58.4144 168.098 58.1406 162.809C60.061 164.627 61.8341 166.305 63.7968 167.852C63.9863 167.72 63.9983 167.669 63.9003 167.86C64.0602 168.125 64.3181 168.197 64.5759 168.27C64.5759 168.27 64.5786 168.23 64.6037 168.407C64.9826 168.886 65.3365 169.187 65.6903 169.489C65.8595 172.017 66.0286 174.545 66.2113 177.309Z" fill="#FEFEFF"/>
<path d="M120.489 297.887C120.645 298.119 120.709 298.369 120.746 298.811C120.574 298.756 120.429 298.51 120.253 298.119C120.224 297.974 120.397 297.904 120.489 297.887Z" fill="#FE677A"/>
<path d="M65.8522 169.368C65.3342 169.188 64.9804 168.886 64.582 168.412C65.0305 168.576 65.5234 168.912 65.8522 169.368Z" fill="#462A63"/>
<path d="M72.8307 173.463C73.1573 173.558 73.484 173.652 73.9152 173.886C74.0197 174.026 73.9395 174.122 73.8976 174.172C73.5492 174.09 73.2426 173.958 72.8685 173.661C72.801 173.496 72.8307 173.463 72.8307 173.463Z" fill="#CA6C91"/>
<path d="M72.215 172.908C72.1394 172.87 72.0638 172.832 71.9883 172.795C72.0465 172.774 72.1046 172.754 72.184 172.827C72.2053 172.92 72.215 172.908 72.215 172.908Z" fill="#CA6C91"/>
<path d="M64.6314 168.07C64.3181 168.197 64.0602 168.125 63.875 167.854C64.194 167.727 64.4404 167.798 64.6314 168.07Z" fill="#462A63"/>
<path d="M70.7629 170.926C70.7157 170.961 70.6992 170.828 70.6992 170.828C70.6992 170.828 70.8102 170.892 70.7629 170.926Z" fill="#CA6C91"/>
<path d="M72.2031 172.925C72.3736 173.014 72.55 173.098 72.7797 173.323C72.8331 173.464 72.8033 173.497 72.7867 173.512C72.5704 173.476 72.4186 173.362 72.2667 173.046C72.2188 172.908 72.2091 172.919 72.2031 172.925Z" fill="#CA6C91"/>
<path d="M70.7132 258.288C70.7345 258.323 70.6919 258.252 70.7132 258.288Z" fill="#5B9EDB"/>
<path d="M120.53 300.168C122.731 311.637 124.676 323.125 126.696 334.598C127.02 336.439 126.472 337.45 124.763 338.208C121.835 339.506 119.001 341.017 115.936 342.514C114.442 334.755 113.175 326.915 111.825 319.09C111.035 314.511 110.003 309.97 109.349 305.374C109.231 304.545 110.232 302.981 111.045 302.697C114.055 301.645 117.203 300.987 120.53 300.168Z" fill="#FE677A"/>
<path d="M111.303 347.178C111.304 347.285 111.125 347.417 110.867 347.442C110.899 347.291 111.012 347.247 111.303 347.178Z" fill="#FE677A"/>
<path d="M243.736 403.28C241.647 401.802 242.079 399.976 243.605 398.616C246.795 395.772 250.206 393.176 253.72 390.422C253.359 391.315 252.919 392.358 252.232 393.198C249.491 396.552 246.672 399.844 243.736 403.28Z" fill="#B73068"/>
<path d="M254.081 390.42C254.033 390.288 254.15 390.099 254.43 389.842C254.476 389.97 254.361 390.167 254.081 390.42Z" fill="#B73068"/>
<path d="M86.2469 350.191C90.876 353.257 95.4012 356.525 99.8827 359.852C100.809 360.54 101.572 361.448 102.591 362.346C102.136 369.25 101.502 376.061 100.633 383.169C96.0804 383.858 91.7622 384.25 87.444 384.642C86.819 378.745 85.8954 372.86 85.6562 366.948C85.4339 361.452 85.9414 355.927 86.2469 350.191Z" fill="#FEBDAB"/>
<path d="M98.2969 270.953C98.0708 264.588 97.4908 258.161 99.727 251.969C102.147 245.267 106.523 240.303 112.861 237.085C113.701 236.658 114.687 236.518 115.826 236.244C116.131 236.451 116.217 236.659 116.3 237.038C115.676 241.123 115.205 245.07 114.401 248.948C113.07 255.364 111.291 261.659 106.804 266.717C104.64 269.156 102.106 271.125 98.2969 270.953Z" fill="#7F56B2"/>
<path d="M87.429 384.894C91.7629 384.249 96.0811 383.857 100.634 383.436C101.216 386.97 101.562 390.535 101.995 394.301C100.473 397.904 98.5381 398.908 94.8549 397.849C92.2586 397.103 89.7665 395.994 87.0197 394.94C87.0122 391.603 87.2128 388.375 87.429 384.894Z" fill="#D9E1EC"/>
</svg>
